<?xml version="1.0" standalone="no"?>
<!DOCTYPE svg PUBLIC "-//W3C//DTD SVG 20010904//EN"
 "http://www.w3.org/TR/2001/REC-SVG-20010904/DTD/svg10.dtd">
<svg version="1.0" xmlns="http://www.w3.org/2000/svg"
 width="16.000000pt" height="16.000000pt" viewBox="0 0 16.000000 16.000000"
 preserveAspectRatio="xMidYMid meet">
<metadata>
Created by potrace 1.11, written by Peter Selinger 2001-2013
</metadata>
<g transform="translate(0.000000,16.000000) scale(0.011111,-0.011111)"
fill="#000000" stroke="none">
<path d="M889 1424 c-10 -12 -16 -55 -19 -137 l-5 -119 -66 -17 c-132 -33
-148 -53 -353 -436 -165 -310 -249 -517 -250 -609 0 -43 4 -52 33 -78 29 -26
38 -29 70 -23 78 14 136 64 332 285 234 264 396 462 459 560 44 69 49 146 11
198 -13 18 -20 36 -16 40 3 4 37 25 73 48 72 44 105 85 85 105 -21 21 -59 0
-109 -60 -46 -57 -84 -78 -84 -47 0 7 27 43 60 79 40 44 60 73 60 90 0 68 -63
38 -125 -59 -26 -41 -52 -74 -56 -74 -18 0 -18 20 0 52 10 18 29 64 41 101 19
60 20 71 8 83 -33 34 -65 -21 -83 -140 -8 -51 -31 -79 -41 -51 -4 9 -4 58 0
108 7 99 -1 130 -25 101z"/>
</g>
</svg>
